<?xml version="1.0" encoding="UTF-8" standalone="no"?>
<!-- Created with Inkscape (http://www.inkscape.org/) -->

<svg
   xmlns:dc="http://purl.org/dc/elements/1.1/"
   xmlns:cc="http://creativecommons.org/ns#"
   xmlns:rdf="http://www.w3.org/1999/02/22-rdf-syntax-ns#"
   xmlns:svg="http://www.w3.org/2000/svg"
   xmlns="http://www.w3.org/2000/svg"
   xmlns:sodipodi="http://sodipodi.sourceforge.net/DTD/sodipodi-0.dtd"
   xmlns:inkscape="http://www.inkscape.org/namespaces/inkscape"
   version="1.1"
   id="svg815"
   width="148.8"
   height="52.400002"
   viewBox="0 0 148.8 52.400002"
   sodipodi:docname="logo.svg"
   inkscape:version="0.92.3 (2405546, 2018-03-11)">
  <metadata
     id="metadata821">
    <rdf:RDF>
      <cc:Work
         rdf:about="">
        <dc:format>image/svg+xml</dc:format>
        <dc:type
           rdf:resource="http://purl.org/dc/dcmitype/StillImage" />
        <dc:title></dc:title>
      </cc:Work>
    </rdf:RDF>
  </metadata>
  <defs
     id="defs819" />
  <sodipodi:namedview
     pagecolor="#ffffff"
     bordercolor="#666666"
     borderopacity="1"
     objecttolerance="10"
     gridtolerance="10"
     guidetolerance="10"
     inkscape:pageopacity="0"
     inkscape:pageshadow="2"
     inkscape:window-width="1366"
     inkscape:window-height="705"
     id="namedview817"
     showgrid="false"
     inkscape:zoom="3.9516128"
     inkscape:cx="75.22259"
     inkscape:cy="12.322945"
     inkscape:window-x="-8"
     inkscape:window-y="-8"
     inkscape:window-maximized="1"
     inkscape:current-layer="svg815" />
  <path
     style="fill:#ffffff;stroke-width:0.40000001;fill-opacity:1"
     d="m 103.94897,49.232092 c -0.44606,-0.537715 -0.52161,-2.937223 -0.40299,-12.798674 l 0.14599,-12.136887 -2.43153,0.254146 C 98.243256,24.866035 96.8,24.135807 96.8,22.293879 c 0,-1.616399 1.388116,-2.443006 4.52542,-2.694839 l 2.52522,-0.202701 0.45055,-3.45123 c 0.86692,-6.6406027 2.36143,-9.5486317 5.81197,-11.308966 1.82009,-0.928538 5.1351,-1.372323 7.26556,-0.972648 2.98465,0.559924 2.62161,3.9411263 -0.4757,4.4304503 -0.82667,0.130599 -2.06786,0.323382 -2.7582,0.428408 -2.56133,0.389667 -4.7504,3.7939677 -5.1989,8.0849917 l -0.24959,2.387972 4.20742,-0.05072 c 3.61962,-0.04363 4.32538,0.05573 5.05183,0.711276 1.87328,1.690441 0.45212,3.835559 -2.54459,3.840849 -0.88605,0.0016 -2.826,0.117592 -4.311,0.257842 l -2.7,0.254998 -0.0174,10.642159 c -0.0185,11.287287 -0.26817,13.876747 -1.41927,14.718454 -0.98387,0.71942 -2.35511,0.656608 -3.01433,-0.138084 z M 11.93435,47.926869 c -3.4305203,-1.341564 -7.0419463,-4.347144 -8.4102243,-6.99934 -1.087518,-2.107991 -1.165381,-5.081122 -0.162131,-6.190811 1.504606,-1.664235 4.23634,-0.467567 4.2395,1.857162 0.0043,3.145912 5.3877993,7.323681 8.8123373,6.838621 2.279897,-0.322928 3.125025,-5.422574 3.453439,-20.838622 L 20.11226,11.093878 h -4.411816 c -3.661842,0 -4.563843,-0.123103 -5.30613,-0.724172 -1.1822853,-0.9573557 -1.1822853,-2.7943007 0,-3.7516567 0.775594,-0.628038 1.830951,-0.7374463 7.95,-0.8241723 11.915147,-0.168872 13.491775,-0.09941 14.627078,0.6444733 1.273316,0.834308 1.421306,2.976151 0.277179,4.0115707 -0.641855,0.580872 -1.274161,0.640574 -4.336175,0.409423 L 25.32765,10.58873 25.074577,19.941305 c -0.474152,17.522815 -2.150404,25.868928 -5.620552,27.98492 -1.614423,0.984424 -5.003294,0.984716 -7.519675,8e-4 z M 88.408204,46.903765 C 87.558616,45.880077 86.760436,38.7722 86.678756,31.502871 c -0.08765,-7.80046 -0.361832,-8.808992 -2.39484,-8.808992 -3.078204,0 -6.757496,3.977754 -8.749776,9.459564 -0.69468,1.911421 -0.860796,3.33029 -0.906232,7.740437 -0.0306,2.970001 -0.202812,5.637613 -0.3827,5.928033 -0.577864,0.93292 -1.972364,1.212872 -3.120308,0.626416 -1.502424,-0.767548 -1.699364,-2.607684 -1.34092,-12.529003 0.163448,-4.523995 0.269296,-9.727357 0.235216,-11.563024 -0.06574,-3.540817 0.43532,-4.97417 1.86996,-5.349337 1.984552,-0.518972 3.302972,1.411648 3.308612,4.844937 l 0.0024,1.358023 2.1938,-2.074803 c 3.754836,-3.551169 7.18598,-4.49064 10.204584,-2.794089 2.904236,1.632273 3.993064,5.276557 3.998596,13.38322 0.0016,2.436705 0.271604,6.343708 0.599876,8.682232 0.605352,4.312404 0.420508,6.046736 -0.72188,6.773132 -0.796656,0.506556 -2.548184,0.349008 -3.066772,-0.275852 z m 39.996936,-0.607812 c -4.15112,-1.185312 -6.02275,-4.036536 -3.92973,-5.986488 1.13304,-1.055582 1.62046,-1.028196 3.46866,0.194888 1.95321,1.292576 5.36545,1.859964 8.30675,1.381256 3.91059,-0.636468 5.2591,-2.258609 3.9623,-4.766336 -0.88464,-1.710712 -2.63571,-2.689183 -6.20926,-3.469633 -7.12535,-1.556153 -9.20412,-3.749747 -8.01957,-8.462519 0.63244,-2.516191 2.05728,-4.301647 4.3405,-5.439028 2.14749,-1.069765 12.00937,-4.254214 13.17482,-4.254214 1.32596,0 2.01482,1.2752 2.53526,4.693183 0.46254,3.037675 0.4448,3.355782 -0.22871,4.1 -1.53115,1.691897 -4.20617,0.494872 -4.20617,-1.882186 0,-1.097998 -0.49994,-1.134706 -3.53844,-0.259805 -4.459,1.28392 -7.26156,3.201947 -7.26156,4.96969 0,0.480671 0.82347,0.819832 3.26369,1.344209 7.97645,1.714055 11.53631,5.055335 11.53631,10.827973 0,3.136726 -2.59128,6.14089 -6.24554,7.240658 -2.5897,0.779384 -7.79415,0.669276 -10.94931,-0.231648 z M 47.8,46.312713 c -3.51606,-0.876908 -6.01516,-2.67842 -7.697228,-5.548652 -0.927031,-1.581862 -1.103672,-2.396586 -1.236476,-5.703021 -0.302585,-7.533493 2.805996,-13.723141 8.018156,-15.965352 1.774024,-0.763166 2.606756,-0.866801 5.89082,-0.733126 3.132008,0.127486 4.147932,0.334592 5.609248,1.1435 4.21908,2.335463 4.852168,6.643927 1.427784,9.716719 -0.446768,0.400895 -4.376356,2.485668 -8.732416,4.63283 l -7.920112,3.903929 1.64244,1.642439 c 2.192488,2.19249 4.844472,3.071086 8.376148,2.775002 3.417488,-0.286508 5.886388,-1.246816 7.546828,-2.935427 1.491312,-1.516613 2.442512,-1.68835 3.412812,-0.616178 2.93232,3.240177 -4.307208,8.123597 -11.900624,8.027561 C 50.45682,46.630417 48.46,46.477317 47.8,46.312713 Z m 8.055824,-19.837284 c 1.26252,-0.807625 2.069256,-1.579169 1.913948,-1.830462 -0.546212,-0.883786 -3.618012,-1.933719 -5.68262,-1.942303 -2.521512,-0.01048 -4.302216,0.682069 -5.764536,2.241951 -1.176292,1.254768 -2.894988,4.798638 -3.31484,6.835042 l -0.265092,1.285778 5.465364,-2.596966 c 3.005948,-1.428332 6.447448,-3.2252 7.647776,-3.99304 z"
     id="path827"
     inkscape:connector-curvature="0" />
</svg>
